# MagicaVoxel @ Ephtracy

# group
o 

# material
mtllib HumVee.vox-24.mtl
usemtl palette

# normals
vn -1 0 0
vn 1 0 0
vn 0 0 1
vn 0 0 -1
vn 0 -1 0
vn 0 1 0

# texcoords
vt 0.908203 0.5
vt 0.939453 0.5

# verts
v -7.7 -2.4 6
v -7.7 -2.4 5.9
v -7.7 -1 6
v -7.7 -1 5.9
v -7 -2.5 5.1
v -7 -2.5 1.9
v -7 -0.4 5.1
v -7 -0.4 1.9
v -6.3 -2.2 5.9
v -6.3 -2.2 5.8
v -6.3 -0.4 5.9
v -6.3 -0.4 5.8
v -6.2 -2.3 5.9
v -6.2 -2.3 5.8
v -6.2 -2.2 5.9
v -6.2 -2.2 5.8
v -6.2 -0.4 5.9
v -6.2 -0.4 5.8
v -6.2 -0.2 5.9
v -6.2 -0.2 5.8
v -6.1 -0.2 5.9
v -6.1 -0.2 5.8
v -6.1 -0.0999999 5.9
v -6.1 -0.0999999 5.8
v -6 -0.0999999 5.9
v -6 -0.0999999 5.8
v -6 2.38419e-07 5.9
v -6 2.38419e-07 5.8
v -5.9 2.38419e-07 5.9
v -5.9 2.38419e-07 5.8
v -5.9 0.1 5.9
v -5.9 0.1 5.8
v -2.1 3.3 -4.3
v -2.1 3.3 -4.5
v -2.1 3.5 -4.3
v -2.1 3.5 -4.5
v -2 -2.4 0.7
v -2 -2.4 0.6
v -2 -0.8 0.7
v -2 -0.8 0.6
v -1.8 2.4 -4.4
v -1.8 2.4 -4.5
v -1.8 2.6 -4.4
v -1.8 2.6 -4.5
v -1.7 2.3 -4.4
v -1.7 2.3 -4.5
v -1.7 2.4 -4.4
v -1.7 2.4 -4.5
v -1.7 2.6 -4.4
v -1.7 2.6 -4.5
v -1.7 2.7 -4.4
v -1.7 2.7 -4.5
v 0.0999999 3.3 -4.3
v 0.0999999 3.3 -4.4
v 0.0999999 3.5 -4.3
v 0.0999999 3.5 -4.4
v 0.5 -2.3 5.9
v 0.5 -2.3 5.8
v 0.5 0.1 5.9
v 0.5 0.1 5.8
v 1.8 2.7 -4.2
v 1.8 2.7 -4.3
v 1.8 3.1 -4.2
v 1.8 3.1 -4.3
v 1.9 2.6 -4.2
v 1.9 2.6 -4.3
v 1.9 2.7 -4.2
v 1.9 2.7 -4.3
v 1.9 2.8 -4.1
v 1.9 2.8 -4.2
v 1.9 3 -4.1
v 1.9 3 -4.2
v 1.9 3.1 -4.2
v 1.9 3.1 -4.3
v 1.9 3.2 -4.2
v 1.9 3.2 -4.3
v 2 2.7 -4.1
v 2 2.7 -4.2
v 2 2.8 -4.1
v 2 2.8 -4.2
v 2 3 -4.1
v 2 3 -4.2
v 2 3.1 -4.1
v 2 3.1 -4.2
v 7.3 -2.5 5.1
v 7.3 -2.5 1.9
v 7.3 -0.4 5.1
v 7.3 -0.4 1.9
v 7.6 -2.4 6
v 7.6 -2.4 5.9
v 7.6 -1 6
v 7.6 -1 5.9
v -7.2 -2.4 6
v -7.2 -2.4 5.9
v -7.2 -1 6
v -7.2 -1 5.9
v -6.9 -2.5 5.1
v -6.9 -2.5 1.9
v -6.9 -0.4 5.1
v -6.9 -0.4 1.9
v -1.9 3.3 -4.3
v -1.9 3.3 -4.5
v -1.9 3.5 -4.3
v -1.9 3.5 -4.5
v -1.5 2.3 -4.4
v -1.5 2.3 -4.5
v -1.5 2.4 -4.4
v -1.5 2.4 -4.5
v -1.5 2.6 -4.4
v -1.5 2.6 -4.5
v -1.5 2.7 -4.4
v -1.5 2.7 -4.5
v -1.4 2.4 -4.4
v -1.4 2.4 -4.5
v -1.4 2.6 -4.4
v -1.4 2.6 -4.5
v -0.0999999 -2.3 5.9
v -0.0999999 -2.3 5.8
v -0.0999999 0.1 5.9
v -0.0999999 0.1 5.8
v 0.3 3.3 -4.3
v 0.3 3.3 -4.4
v 0.3 3.5 -4.3
v 0.3 3.5 -4.4
v 2.2 2.7 -4.1
v 2.2 2.7 -4.2
v 2.2 2.8 -4.1
v 2.2 2.8 -4.2
v 2.2 3 -4.1
v 2.2 3 -4.2
v 2.2 3.1 -4.1
v 2.2 3.1 -4.2
v 2.3 2.6 -4.2
v 2.3 2.6 -4.3
v 2.3 2.7 -4.2
v 2.3 2.7 -4.3
v 2.3 2.8 -4.1
v 2.3 2.8 -4.2
v 2.3 3 -4.1
v 2.3 3 -4.2
v 2.3 3.1 -4.2
v 2.3 3.1 -4.3
v 2.3 3.2 -4.2
v 2.3 3.2 -4.3
v 2.4 -2.4 0.7
v 2.4 -2.4 0.6
v 2.4 -0.8 0.7
v 2.4 -0.8 0.6
v 2.4 2.7 -4.2
v 2.4 2.7 -4.3
v 2.4 3.1 -4.2
v 2.4 3.1 -4.3
v 6.3 2.38419e-07 5.9
v 6.3 2.38419e-07 5.8
v 6.3 0.1 5.9
v 6.3 0.1 5.8
v 6.4 -0.0999999 5.9
v 6.4 -0.0999999 5.8
v 6.4 2.38419e-07 5.9
v 6.4 2.38419e-07 5.8
v 6.5 -0.2 5.9
v 6.5 -0.2 5.8
v 6.5 -0.0999999 5.9
v 6.5 -0.0999999 5.8
v 6.6 -2.3 5.9
v 6.6 -2.3 5.8
v 6.6 -2.2 5.9
v 6.6 -2.2 5.8
v 6.6 -0.4 5.9
v 6.6 -0.4 5.8
v 6.6 -0.2 5.9
v 6.6 -0.2 5.8
v 6.7 -2.2 5.9
v 6.7 -2.2 5.8
v 6.7 -0.4 5.9
v 6.7 -0.4 5.8
v 7.4 -2.5 5.1
v 7.4 -2.5 1.9
v 7.4 -0.4 5.1
v 7.4 -0.4 1.9
v 8.1 -2.4 6
v 8.1 -2.4 5.9
v 8.1 -1 6
v 8.1 -1 5.9
v -7.7 -2.4 6
v -7.7 -1 6
v -7.2 -2.4 6
v -7.2 -1 6
v 7.6 -2.4 6
v 7.6 -1 6
v 8.1 -2.4 6
v 8.1 -1 6
v -6.3 -2.2 5.9
v -6.3 -0.4 5.9
v -6.2 -2.3 5.9
v -6.2 -2.2 5.9
v -6.2 -0.4 5.9
v -6.2 -0.2 5.9
v -6.1 -0.2 5.9
v -6.1 -0.0999999 5.9
v -6 -0.0999999 5.9
v -6 2.38419e-07 5.9
v -5.9 2.38419e-07 5.9
v -5.9 0.1 5.9
v -0.0999999 -2.3 5.9
v -0.0999999 0.1 5.9
v 0.5 -2.3 5.9
v 0.5 0.1 5.9
v 6.3 2.38419e-07 5.9
v 6.3 0.1 5.9
v 6.4 -0.0999999 5.9
v 6.4 2.38419e-07 5.9
v 6.5 -0.2 5.9
v 6.5 -0.0999999 5.9
v 6.6 -2.3 5.9
v 6.6 -2.2 5.9
v 6.6 -0.4 5.9
v 6.6 -0.2 5.9
v 6.7 -2.2 5.9
v 6.7 -0.4 5.9
v -7 -2.5 5.1
v -7 -0.4 5.1
v -6.9 -2.5 5.1
v -6.9 -0.4 5.1
v 7.3 -2.5 5.1
v 7.3 -0.4 5.1
v 7.4 -2.5 5.1
v 7.4 -0.4 5.1
v -2 -2.4 0.7
v -2 -0.8 0.7
v 2.4 -2.4 0.7
v 2.4 -0.8 0.7
v 1.9 2.8 -4.1
v 1.9 3 -4.1
v 2 2.7 -4.1
v 2 2.8 -4.1
v 2 3 -4.1
v 2 3.1 -4.1
v 2.2 2.7 -4.1
v 2.2 2.8 -4.1
v 2.2 3 -4.1
v 2.2 3.1 -4.1
v 2.3 2.8 -4.1
v 2.3 3 -4.1
v 1.8 2.7 -4.2
v 1.8 3.1 -4.2
v 1.9 2.6 -4.2
v 1.9 2.7 -4.2
v 1.9 2.8 -4.2
v 1.9 3 -4.2
v 1.9 3.1 -4.2
v 1.9 3.2 -4.2
v 2 2.7 -4.2
v 2 2.8 -4.2
v 2 3 -4.2
v 2 3.1 -4.2
v 2.2 2.7 -4.2
v 2.2 2.8 -4.2
v 2.2 3 -4.2
v 2.2 3.1 -4.2
v 2.3 2.6 -4.2
v 2.3 2.7 -4.2
v 2.3 2.8 -4.2
v 2.3 3 -4.2
v 2.3 3.1 -4.2
v 2.3 3.2 -4.2
v 2.4 2.7 -4.2
v 2.4 3.1 -4.2
v -2.1 3.3 -4.3
v -2.1 3.5 -4.3
v -1.9 3.3 -4.3
v -1.9 3.5 -4.3
v 0.0999999 3.3 -4.3
v 0.0999999 3.5 -4.3
v 0.3 3.3 -4.3
v 0.3 3.5 -4.3
v -1.8 2.4 -4.4
v -1.8 2.6 -4.4
v -1.7 2.3 -4.4
v -1.7 2.4 -4.4
v -1.7 2.6 -4.4
v -1.7 2.7 -4.4
v -1.5 2.3 -4.4
v -1.5 2.4 -4.4
v -1.5 2.6 -4.4
v -1.5 2.7 -4.4
v -1.4 2.4 -4.4
v -1.4 2.6 -4.4
v -7.7 -2.4 5.9
v -7.7 -1 5.9
v -7.2 -2.4 5.9
v -7.2 -1 5.9
v 7.6 -2.4 5.9
v 7.6 -1 5.9
v 8.1 -2.4 5.9
v 8.1 -1 5.9
v -6.3 -2.2 5.8
v -6.3 -0.4 5.8
v -6.2 -2.3 5.8
v -6.2 -2.2 5.8
v -6.2 -0.4 5.8
v -6.2 -0.2 5.8
v -6.1 -0.2 5.8
v -6.1 -0.0999999 5.8
v -6 -0.0999999 5.8
v -6 2.38419e-07 5.8
v -5.9 2.38419e-07 5.8
v -5.9 0.1 5.8
v -0.0999999 -2.3 5.8
v -0.0999999 0.1 5.8
v 0.5 -2.3 5.8
v 0.5 0.1 5.8
v 6.3 2.38419e-07 5.8
v 6.3 0.1 5.8
v 6.4 -0.0999999 5.8
v 6.4 2.38419e-07 5.8
v 6.5 -0.2 5.8
v 6.5 -0.0999999 5.8
v 6.6 -2.3 5.8
v 6.6 -2.2 5.8
v 6.6 -0.4 5.8
v 6.6 -0.2 5.8
v 6.7 -2.2 5.8
v 6.7 -0.4 5.8
v -7 -2.5 1.9
v -7 -0.4 1.9
v -6.9 -2.5 1.9
v -6.9 -0.4 1.9
v 7.3 -2.5 1.9
v 7.3 -0.4 1.9
v 7.4 -2.5 1.9
v 7.4 -0.4 1.9
v -2 -2.4 0.6
v -2 -0.8 0.6
v 2.4 -2.4 0.6
v 2.4 -0.8 0.6
v 1.8 2.7 -4.3
v 1.8 3.1 -4.3
v 1.9 2.6 -4.3
v 1.9 2.7 -4.3
v 1.9 3.1 -4.3
v 1.9 3.2 -4.3
v 2.3 2.6 -4.3
v 2.3 2.7 -4.3
v 2.3 3.1 -4.3
v 2.3 3.2 -4.3
v 2.4 2.7 -4.3
v 2.4 3.1 -4.3
v 0.0999999 3.3 -4.4
v 0.0999999 3.5 -4.4
v 0.3 3.3 -4.4
v 0.3 3.5 -4.4
v -2.1 3.3 -4.5
v -2.1 3.5 -4.5
v -1.9 3.3 -4.5
v -1.9 3.5 -4.5
v -1.8 2.4 -4.5
v -1.8 2.6 -4.5
v -1.7 2.3 -4.5
v -1.7 2.4 -4.5
v -1.7 2.6 -4.5
v -1.7 2.7 -4.5
v -1.5 2.3 -4.5
v -1.5 2.4 -4.5
v -1.5 2.6 -4.5
v -1.5 2.7 -4.5
v -1.4 2.4 -4.5
v -1.4 2.6 -4.5
v -7 -2.5 5.1
v -6.9 -2.5 5.1
v 7.3 -2.5 5.1
v 7.4 -2.5 5.1
v -7 -2.5 1.9
v -6.9 -2.5 1.9
v 7.3 -2.5 1.9
v 7.4 -2.5 1.9
v -7.7 -2.4 6
v -7.2 -2.4 6
v 7.6 -2.4 6
v 8.1 -2.4 6
v -7.7 -2.4 5.9
v -7.2 -2.4 5.9
v 7.6 -2.4 5.9
v 8.1 -2.4 5.9
v -2 -2.4 0.7
v 2.4 -2.4 0.7
v -2 -2.4 0.6
v 2.4 -2.4 0.6
v -6.2 -2.3 5.9
v -0.0999999 -2.3 5.9
v 0.5 -2.3 5.9
v 6.6 -2.3 5.9
v -6.2 -2.3 5.8
v -0.0999999 -2.3 5.8
v 0.5 -2.3 5.8
v 6.6 -2.3 5.8
v -6.3 -2.2 5.9
v -6.2 -2.2 5.9
v 6.6 -2.2 5.9
v 6.7 -2.2 5.9
v -6.3 -2.2 5.8
v -6.2 -2.2 5.8
v 6.6 -2.2 5.8
v 6.7 -2.2 5.8
v -1.7 2.3 -4.4
v -1.5 2.3 -4.4
v -1.7 2.3 -4.5
v -1.5 2.3 -4.5
v -1.8 2.4 -4.4
v -1.7 2.4 -4.4
v -1.5 2.4 -4.4
v -1.4 2.4 -4.4
v -1.8 2.4 -4.5
v -1.7 2.4 -4.5
v -1.5 2.4 -4.5
v -1.4 2.4 -4.5
v 1.9 2.6 -4.2
v 2.3 2.6 -4.2
v 1.9 2.6 -4.3
v 2.3 2.6 -4.3
v 2 2.7 -4.1
v 2.2 2.7 -4.1
v 1.8 2.7 -4.2
v 1.9 2.7 -4.2
v 2 2.7 -4.2
v 2.2 2.7 -4.2
v 2.3 2.7 -4.2
v 2.4 2.7 -4.2
v 1.8 2.7 -4.3
v 1.9 2.7 -4.3
v 2.3 2.7 -4.3
v 2.4 2.7 -4.3
v 1.9 2.8 -4.1
v 2 2.8 -4.1
v 2.2 2.8 -4.1
v 2.3 2.8 -4.1
v 1.9 2.8 -4.2
v 2 2.8 -4.2
v 2.2 2.8 -4.2
v 2.3 2.8 -4.2
v -2.1 3.3 -4.3
v -1.9 3.3 -4.3
v 0.0999999 3.3 -4.3
v 0.3 3.3 -4.3
v 0.0999999 3.3 -4.4
v 0.3 3.3 -4.4
v -2.1 3.3 -4.5
v -1.9 3.3 -4.5
v -7.7 -1 6
v -7.2 -1 6
v 7.6 -1 6
v 8.1 -1 6
v -7.7 -1 5.9
v -7.2 -1 5.9
v 7.6 -1 5.9
v 8.1 -1 5.9
v -2 -0.8 0.7
v 2.4 -0.8 0.7
v -2 -0.8 0.6
v 2.4 -0.8 0.6
v -6.3 -0.4 5.9
v -6.2 -0.4 5.9
v 6.6 -0.4 5.9
v 6.7 -0.4 5.9
v -6.3 -0.4 5.8
v -6.2 -0.4 5.8
v 6.6 -0.4 5.8
v 6.7 -0.4 5.8
v -7 -0.4 5.1
v -6.9 -0.4 5.1
v 7.3 -0.4 5.1
v 7.4 -0.4 5.1
v -7 -0.4 1.9
v -6.9 -0.4 1.9
v 7.3 -0.4 1.9
v 7.4 -0.4 1.9
v -6.2 -0.2 5.9
v -6.1 -0.2 5.9
v 6.5 -0.2 5.9
v 6.6 -0.2 5.9
v -6.2 -0.2 5.8
v -6.1 -0.2 5.8
v 6.5 -0.2 5.8
v 6.6 -0.2 5.8
v -6.1 -0.0999999 5.9
v -6 -0.0999999 5.9
v 6.4 -0.0999999 5.9
v 6.5 -0.0999999 5.9
v -6.1 -0.0999999 5.8
v -6 -0.0999999 5.8
v 6.4 -0.0999999 5.8
v 6.5 -0.0999999 5.8
v -6 2.38419e-07 5.9
v -5.9 2.38419e-07 5.9
v 6.3 2.38419e-07 5.9
v 6.4 2.38419e-07 5.9
v -6 2.38419e-07 5.8
v -5.9 2.38419e-07 5.8
v 6.3 2.38419e-07 5.8
v 6.4 2.38419e-07 5.8
v -5.9 0.1 5.9
v -0.0999999 0.1 5.9
v 0.5 0.1 5.9
v 6.3 0.1 5.9
v -5.9 0.1 5.8
v -0.0999999 0.1 5.8
v 0.5 0.1 5.8
v 6.3 0.1 5.8
v -1.8 2.6 -4.4
v -1.7 2.6 -4.4
v -1.5 2.6 -4.4
v -1.4 2.6 -4.4
v -1.8 2.6 -4.5
v -1.7 2.6 -4.5
v -1.5 2.6 -4.5
v -1.4 2.6 -4.5
v -1.7 2.7 -4.4
v -1.5 2.7 -4.4
v -1.7 2.7 -4.5
v -1.5 2.7 -4.5
v 1.9 3 -4.1
v 2 3 -4.1
v 2.2 3 -4.1
v 2.3 3 -4.1
v 1.9 3 -4.2
v 2 3 -4.2
v 2.2 3 -4.2
v 2.3 3 -4.2
v 2 3.1 -4.1
v 2.2 3.1 -4.1
v 1.8 3.1 -4.2
v 1.9 3.1 -4.2
v 2 3.1 -4.2
v 2.2 3.1 -4.2
v 2.3 3.1 -4.2
v 2.4 3.1 -4.2
v 1.8 3.1 -4.3
v 1.9 3.1 -4.3
v 2.3 3.1 -4.3
v 2.4 3.1 -4.3
v 1.9 3.2 -4.2
v 2.3 3.2 -4.2
v 1.9 3.2 -4.3
v 2.3 3.2 -4.3
v -2.1 3.5 -4.3
v -1.9 3.5 -4.3
v 0.0999999 3.5 -4.3
v 0.3 3.5 -4.3
v 0.0999999 3.5 -4.4
v 0.3 3.5 -4.4
v -2.1 3.5 -4.5
v -1.9 3.5 -4.5

# faces
f 3/2/1 2/2/1 1/2/1
f 4/2/1 2/2/1 3/2/1
f 7/2/1 6/2/1 5/2/1
f 8/2/1 6/2/1 7/2/1
f 11/2/1 10/2/1 9/2/1
f 12/2/1 10/2/1 11/2/1
f 15/2/1 14/2/1 13/2/1
f 16/2/1 14/2/1 15/2/1
f 19/2/1 18/2/1 17/2/1
f 20/2/1 18/2/1 19/2/1
f 23/2/1 22/2/1 21/2/1
f 24/2/1 22/2/1 23/2/1
f 27/2/1 26/2/1 25/2/1
f 28/2/1 26/2/1 27/2/1
f 31/2/1 30/2/1 29/2/1
f 32/2/1 30/2/1 31/2/1
f 35/1/1 34/1/1 33/1/1
f 36/1/1 34/1/1 35/1/1
f 39/2/1 38/2/1 37/2/1
f 40/2/1 38/2/1 39/2/1
f 43/1/1 42/1/1 41/1/1
f 44/1/1 42/1/1 43/1/1
f 47/1/1 46/1/1 45/1/1
f 48/1/1 46/1/1 47/1/1
f 51/1/1 50/1/1 49/1/1
f 52/1/1 50/1/1 51/1/1
f 55/1/1 54/1/1 53/1/1
f 56/1/1 54/1/1 55/1/1
f 59/2/1 58/2/1 57/2/1
f 60/2/1 58/2/1 59/2/1
f 63/1/1 62/1/1 61/1/1
f 64/1/1 62/1/1 63/1/1
f 67/1/1 66/1/1 65/1/1
f 68/1/1 66/1/1 67/1/1
f 71/1/1 70/1/1 69/1/1
f 72/1/1 70/1/1 71/1/1
f 75/1/1 74/1/1 73/1/1
f 76/1/1 74/1/1 75/1/1
f 79/1/1 78/1/1 77/1/1
f 80/1/1 78/1/1 79/1/1
f 83/1/1 82/1/1 81/1/1
f 84/1/1 82/1/1 83/1/1
f 87/2/1 86/2/1 85/2/1
f 88/2/1 86/2/1 87/2/1
f 91/2/1 90/2/1 89/2/1
f 92/2/1 90/2/1 91/2/1
f 93/2/2 94/2/2 95/2/2
f 95/2/2 94/2/2 96/2/2
f 97/2/2 98/2/2 99/2/2
f 99/2/2 98/2/2 100/2/2
f 101/1/2 102/1/2 103/1/2
f 103/1/2 102/1/2 104/1/2
f 105/1/2 106/1/2 107/1/2
f 107/1/2 106/1/2 108/1/2
f 109/1/2 110/1/2 111/1/2
f 111/1/2 110/1/2 112/1/2
f 113/1/2 114/1/2 115/1/2
f 115/1/2 114/1/2 116/1/2
f 117/2/2 118/2/2 119/2/2
f 119/2/2 118/2/2 120/2/2
f 121/1/2 122/1/2 123/1/2
f 123/1/2 122/1/2 124/1/2
f 125/1/2 126/1/2 127/1/2
f 127/1/2 126/1/2 128/1/2
f 129/1/2 130/1/2 131/1/2
f 131/1/2 130/1/2 132/1/2
f 133/1/2 134/1/2 135/1/2
f 135/1/2 134/1/2 136/1/2
f 137/1/2 138/1/2 139/1/2
f 139/1/2 138/1/2 140/1/2
f 141/1/2 142/1/2 143/1/2
f 143/1/2 142/1/2 144/1/2
f 145/2/2 146/2/2 147/2/2
f 147/2/2 146/2/2 148/2/2
f 149/1/2 150/1/2 151/1/2
f 151/1/2 150/1/2 152/1/2
f 153/2/2 154/2/2 155/2/2
f 155/2/2 154/2/2 156/2/2
f 157/2/2 158/2/2 159/2/2
f 159/2/2 158/2/2 160/2/2
f 161/2/2 162/2/2 163/2/2
f 163/2/2 162/2/2 164/2/2
f 165/2/2 166/2/2 167/2/2
f 167/2/2 166/2/2 168/2/2
f 169/2/2 170/2/2 171/2/2
f 171/2/2 170/2/2 172/2/2
f 173/2/2 174/2/2 175/2/2
f 175/2/2 174/2/2 176/2/2
f 177/2/2 178/2/2 179/2/2
f 179/2/2 178/2/2 180/2/2
f 181/2/2 182/2/2 183/2/2
f 183/2/2 182/2/2 184/2/2
f 187/2/3 186/2/3 185/2/3
f 188/2/3 186/2/3 187/2/3
f 191/2/3 190/2/3 189/2/3
f 192/2/3 190/2/3 191/2/3
f 196/2/3 194/2/3 193/2/3
f 197/2/3 194/2/3 196/2/3
f 199/2/3 196/2/3 195/2/3
f 199/2/3 198/2/3 197/2/3
f 199/2/3 197/2/3 196/2/3
f 201/2/3 200/2/3 199/2/3
f 203/2/3 202/2/3 201/2/3
f 205/2/3 199/2/3 195/2/3
f 205/2/3 204/2/3 203/2/3
f 205/2/3 203/2/3 201/2/3
f 205/2/3 201/2/3 199/2/3
f 206/2/3 204/2/3 205/2/3
f 209/2/3 208/2/3 207/2/3
f 210/2/3 208/2/3 209/2/3
f 211/2/3 209/2/3 207/2/3
f 212/2/3 209/2/3 211/2/3
f 213/2/3 211/2/3 207/2/3
f 214/2/3 211/2/3 213/2/3
f 215/2/3 213/2/3 207/2/3
f 216/2/3 213/2/3 215/2/3
f 217/2/3 213/2/3 216/2/3
f 218/2/3 213/2/3 217/2/3
f 219/2/3 217/2/3 216/2/3
f 220/2/3 217/2/3 219/2/3
f 223/2/3 222/2/3 221/2/3
f 224/2/3 222/2/3 223/2/3
f 227/2/3 226/2/3 225/2/3
f 228/2/3 226/2/3 227/2/3
f 231/2/3 230/2/3 229/2/3
f 232/2/3 230/2/3 231/2/3
f 236/1/3 234/1/3 233/1/3
f 237/1/3 234/1/3 236/1/3
f 239/1/3 236/1/3 235/1/3
f 239/1/3 238/1/3 237/1/3
f 239/1/3 237/1/3 236/1/3
f 240/1/3 238/1/3 239/1/3
f 241/1/3 238/1/3 240/1/3
f 242/1/3 238/1/3 241/1/3
f 243/1/3 241/1/3 240/1/3
f 244/1/3 241/1/3 243/1/3
f 248/1/3 246/1/3 245/1/3
f 249/1/3 246/1/3 248/1/3
f 250/1/3 246/1/3 249/1/3
f 251/1/3 246/1/3 250/1/3
f 253/1/3 248/1/3 247/1/3
f 253/1/3 249/1/3 248/1/3
f 254/1/3 249/1/3 253/1/3
f 255/1/3 252/1/3 251/1/3
f 255/1/3 251/1/3 250/1/3
f 256/1/3 252/1/3 255/1/3
f 257/1/3 253/1/3 247/1/3
f 260/1/3 252/1/3 256/1/3
f 261/1/3 258/1/3 257/1/3
f 261/1/3 257/1/3 247/1/3
f 262/1/3 258/1/3 261/1/3
f 263/1/3 258/1/3 262/1/3
f 264/1/3 260/1/3 259/1/3
f 265/1/3 252/1/3 260/1/3
f 265/1/3 260/1/3 264/1/3
f 266/1/3 252/1/3 265/1/3
f 267/1/3 263/1/3 262/1/3
f 267/1/3 264/1/3 263/1/3
f 267/1/3 265/1/3 264/1/3
f 268/1/3 265/1/3 267/1/3
f 271/1/3 270/1/3 269/1/3
f 272/1/3 270/1/3 271/1/3
f 275/1/3 274/1/3 273/1/3
f 276/1/3 274/1/3 275/1/3
f 280/1/3 278/1/3 277/1/3
f 281/1/3 278/1/3 280/1/3
f 283/1/3 280/1/3 279/1/3
f 283/1/3 282/1/3 281/1/3
f 283/1/3 281/1/3 280/1/3
f 284/1/3 282/1/3 283/1/3
f 285/1/3 282/1/3 284/1/3
f 286/1/3 282/1/3 285/1/3
f 287/1/3 285/1/3 284/1/3
f 288/1/3 285/1/3 287/1/3
f 289/2/4 290/2/4 291/2/4
f 291/2/4 290/2/4 292/2/4
f 293/2/4 294/2/4 295/2/4
f 295/2/4 294/2/4 296/2/4
f 297/2/4 298/2/4 300/2/4
f 300/2/4 298/2/4 301/2/4
f 299/2/4 300/2/4 303/2/4
f 301/2/4 302/2/4 303/2/4
f 300/2/4 301/2/4 303/2/4
f 303/2/4 304/2/4 305/2/4
f 305/2/4 306/2/4 307/2/4
f 299/2/4 303/2/4 309/2/4
f 307/2/4 308/2/4 309/2/4
f 305/2/4 307/2/4 309/2/4
f 303/2/4 305/2/4 309/2/4
f 309/2/4 308/2/4 310/2/4
f 311/2/4 312/2/4 313/2/4
f 313/2/4 312/2/4 314/2/4
f 311/2/4 313/2/4 315/2/4
f 315/2/4 313/2/4 316/2/4
f 311/2/4 315/2/4 317/2/4
f 317/2/4 315/2/4 318/2/4
f 311/2/4 317/2/4 319/2/4
f 319/2/4 317/2/4 320/2/4
f 320/2/4 317/2/4 321/2/4
f 321/2/4 317/2/4 322/2/4
f 320/2/4 321/2/4 323/2/4
f 323/2/4 321/2/4 324/2/4
f 325/2/4 326/2/4 327/2/4
f 327/2/4 326/2/4 328/2/4
f 329/2/4 330/2/4 331/2/4
f 331/2/4 330/2/4 332/2/4
f 333/2/4 334/2/4 335/2/4
f 335/2/4 334/2/4 336/2/4
f 337/1/4 338/1/4 340/1/4
f 340/1/4 338/1/4 341/1/4
f 339/1/4 340/1/4 343/1/4
f 341/1/4 342/1/4 343/1/4
f 340/1/4 341/1/4 343/1/4
f 343/1/4 342/1/4 344/1/4
f 344/1/4 342/1/4 345/1/4
f 345/1/4 342/1/4 346/1/4
f 344/1/4 345/1/4 347/1/4
f 347/1/4 345/1/4 348/1/4
f 349/1/4 350/1/4 351/1/4
f 351/1/4 350/1/4 352/1/4
f 353/1/4 354/1/4 355/1/4
f 355/1/4 354/1/4 356/1/4
f 357/1/4 358/1/4 360/1/4
f 360/1/4 358/1/4 361/1/4
f 359/1/4 360/1/4 363/1/4
f 361/1/4 362/1/4 363/1/4
f 360/1/4 361/1/4 363/1/4
f 363/1/4 362/1/4 364/1/4
f 364/1/4 362/1/4 365/1/4
f 365/1/4 362/1/4 366/1/4
f 364/1/4 365/1/4 367/1/4
f 367/1/4 365/1/4 368/1/4
f 373/2/5 370/2/5 369/2/5
f 374/2/5 370/2/5 373/2/5
f 375/2/5 372/2/5 371/2/5
f 376/2/5 372/2/5 375/2/5
f 381/2/5 378/2/5 377/2/5
f 382/2/5 378/2/5 381/2/5
f 383/2/5 380/2/5 379/2/5
f 384/2/5 380/2/5 383/2/5
f 387/2/5 386/2/5 385/2/5
f 388/2/5 386/2/5 387/2/5
f 393/2/5 390/2/5 389/2/5
f 394/2/5 390/2/5 393/2/5
f 395/2/5 392/2/5 391/2/5
f 396/2/5 392/2/5 395/2/5
f 401/2/5 398/2/5 397/2/5
f 402/2/5 398/2/5 401/2/5
f 403/2/5 400/2/5 399/2/5
f 404/2/5 400/2/5 403/2/5
f 407/1/5 406/1/5 405/1/5
f 408/1/5 406/1/5 407/1/5
f 413/1/5 410/1/5 409/1/5
f 414/1/5 410/1/5 413/1/5
f 415/1/5 412/1/5 411/1/5
f 416/1/5 412/1/5 415/1/5
f 419/1/5 418/1/5 417/1/5
f 420/1/5 418/1/5 419/1/5
f 425/1/5 422/1/5 421/1/5
f 426/1/5 422/1/5 425/1/5
f 429/1/5 424/1/5 423/1/5
f 430/1/5 424/1/5 429/1/5
f 431/1/5 428/1/5 427/1/5
f 432/1/5 428/1/5 431/1/5
f 437/1/5 434/1/5 433/1/5
f 438/1/5 434/1/5 437/1/5
f 439/1/5 436/1/5 435/1/5
f 440/1/5 436/1/5 439/1/5
f 445/1/5 444/1/5 443/1/5
f 446/1/5 444/1/5 445/1/5
f 447/1/5 442/1/5 441/1/5
f 448/1/5 442/1/5 447/1/5
f 449/2/6 450/2/6 453/2/6
f 453/2/6 450/2/6 454/2/6
f 451/2/6 452/2/6 455/2/6
f 455/2/6 452/2/6 456/2/6
f 457/2/6 458/2/6 459/2/6
f 459/2/6 458/2/6 460/2/6
f 461/2/6 462/2/6 465/2/6
f 465/2/6 462/2/6 466/2/6
f 463/2/6 464/2/6 467/2/6
f 467/2/6 464/2/6 468/2/6
f 469/2/6 470/2/6 473/2/6
f 473/2/6 470/2/6 474/2/6
f 471/2/6 472/2/6 475/2/6
f 475/2/6 472/2/6 476/2/6
f 477/2/6 478/2/6 481/2/6
f 481/2/6 478/2/6 482/2/6
f 479/2/6 480/2/6 483/2/6
f 483/2/6 480/2/6 484/2/6
f 485/2/6 486/2/6 489/2/6
f 489/2/6 486/2/6 490/2/6
f 487/2/6 488/2/6 491/2/6
f 491/2/6 488/2/6 492/2/6
f 493/2/6 494/2/6 497/2/6
f 497/2/6 494/2/6 498/2/6
f 495/2/6 496/2/6 499/2/6
f 499/2/6 496/2/6 500/2/6
f 501/2/6 502/2/6 505/2/6
f 505/2/6 502/2/6 506/2/6
f 503/2/6 504/2/6 507/2/6
f 507/2/6 504/2/6 508/2/6
f 509/1/6 510/1/6 513/1/6
f 513/1/6 510/1/6 514/1/6
f 511/1/6 512/1/6 515/1/6
f 515/1/6 512/1/6 516/1/6
f 517/1/6 518/1/6 519/1/6
f 519/1/6 518/1/6 520/1/6
f 521/1/6 522/1/6 525/1/6
f 525/1/6 522/1/6 526/1/6
f 523/1/6 524/1/6 527/1/6
f 527/1/6 524/1/6 528/1/6
f 529/1/6 530/1/6 533/1/6
f 533/1/6 530/1/6 534/1/6
f 531/1/6 532/1/6 537/1/6
f 537/1/6 532/1/6 538/1/6
f 535/1/6 536/1/6 539/1/6
f 539/1/6 536/1/6 540/1/6
f 541/1/6 542/1/6 543/1/6
f 543/1/6 542/1/6 544/1/6
f 547/1/6 548/1/6 549/1/6
f 549/1/6 548/1/6 550/1/6
f 545/1/6 546/1/6 551/1/6
f 551/1/6 546/1/6 552/1/6
